<?xml version="1.0" encoding="UTF-8" ?>
<!DOCTYPE svg PUBLIC "-//W3C//DTD SVG 1.1//EN" "http://www.w3.org/Graphics/SVG/1.1/DTD/svg11.dtd">
<svg width="735pt" height="859pt" viewBox="0 0 735 859" version="1.1" xmlns="http://www.w3.org/2000/svg">
<g id="#ffffffff">
</g>
<g id="#000000ff">
<path fill="#000000" opacity="1.00" d=" M 276.96 5.74 C 296.29 4.15 315.60 2.25 334.93 0.76 C 356.94 -0.16 378.96 0.68 400.97 0.59 C 413.34 1.47 425.68 2.72 438.06 3.56 C 478.40 7.38 518.60 13.41 557.91 23.37 C 603.97 34.83 648.96 50.55 692.29 69.93 C 695.35 71.18 698.07 73.45 699.22 76.63 C 700.84 81.25 701.58 86.13 702.79 90.88 C 719.72 162.61 732.68 235.63 735.00 309.43 L 735.00 338.37 C 733.54 370.24 730.57 402.11 724.09 433.39 C 707.83 515.89 671.91 594.19 621.60 661.45 C 598.60 692.07 572.33 720.16 543.78 745.66 C 501.10 783.60 454.17 816.94 403.50 843.36 C 394.13 848.02 384.70 852.58 375.23 857.04 C 373.42 857.89 371.53 858.56 369.58 859.00 L 366.40 859.00 C 360.09 857.49 354.44 854.16 348.59 851.49 C 288.87 822.76 233.61 784.83 185.20 739.58 C 159.10 715.38 134.93 689.05 113.41 660.68 C 60.67 591.53 25.41 509.51 9.74 424.06 C 4.37 397.68 3.12 370.74 0.70 343.99 C -0.11 326.99 0.69 309.98 0.62 292.98 C 1.26 280.92 2.98 268.95 3.83 256.92 C 6.74 228.47 11.03 200.19 15.71 171.99 C 21.31 140.84 28.11 109.91 35.53 79.15 C 36.51 74.88 39.67 71.34 43.76 69.79 C 85.12 51.23 128.02 36.08 171.94 24.83 C 206.47 16.17 241.50 9.19 276.96 5.74 M 201.13 53.07 C 179.90 57.93 158.86 63.61 138.13 70.27 C 134.72 71.37 132.02 74.34 131.36 77.88 C 125.27 105.56 119.10 133.25 114.30 161.19 C 106.53 202.52 100.05 244.16 97.09 286.13 C 95.00 308.69 94.98 331.38 95.28 354.02 C 96.57 409.84 106.63 465.45 124.82 518.24 L 125.19 518.81 C 131.49 537.16 139.27 554.97 146.39 573.01 C 149.06 572.39 151.22 570.65 153.55 569.32 C 171.80 558.84 189.49 547.19 205.23 533.16 C 214.98 524.96 223.26 515.24 231.99 506.02 C 235.33 525.04 243.57 542.90 254.00 559.04 C 242.48 565.26 231.02 571.62 219.06 576.99 C 200.24 585.89 180.71 593.17 160.97 599.70 C 162.57 603.60 164.86 607.16 167.00 610.78 C 194.09 657.04 228.01 699.20 266.67 736.29 C 296.61 764.83 329.28 790.48 363.82 813.21 C 366.71 815.65 370.53 814.33 373.21 812.30 C 404.35 791.74 433.85 768.69 461.23 743.34 C 517.71 690.82 564.93 627.67 595.70 556.75 C 613.58 516.11 625.85 473.12 633.40 429.41 C 612.15 430.98 590.89 432.61 569.61 433.63 C 567.56 437.76 565.93 442.34 562.28 445.39 C 557.46 449.60 550.87 450.41 544.90 451.93 C 531.43 454.90 518.09 458.44 504.61 461.33 C 500.44 436.69 490.77 412.67 474.56 393.44 C 466.63 383.47 456.91 375.17 447.19 367.04 C 454.42 366.38 461.70 366.90 468.94 366.74 C 525.78 366.73 582.62 366.75 639.46 366.73 C 640.93 349.21 640.42 331.61 640.26 314.05 C 639.56 301.42 639.38 288.75 637.88 276.18 C 636.02 254.36 632.61 232.71 629.69 211.02 C 623.54 167.46 615.08 124.25 605.23 81.38 C 604.57 76.58 602.07 71.49 597.05 70.10 C 523.01 47.15 445.55 34.65 367.98 35.21 C 354.31 34.28 340.64 35.35 326.97 35.66 C 284.65 38.08 242.49 43.68 201.13 53.07 M 73.91 93.86 C 69.09 95.54 65.49 99.95 64.53 104.92 C 63.02 111.67 61.35 118.38 60.16 125.20 L 59.78 125.83 C 58.74 132.61 57.07 139.29 55.72 146.02 C 49.76 176.88 44.44 207.91 41.08 239.16 C 37.29 268.30 34.94 297.68 35.37 327.09 C 35.98 376.42 43.38 425.68 57.57 472.95 C 69.29 512.54 85.30 551.02 106.68 586.39 C 108.03 587.23 109.49 587.88 111.01 588.36 C 119.14 584.73 127.72 582.24 135.89 578.71 C 128.17 561.64 120.46 544.55 114.11 526.92 C 98.51 484.77 88.22 440.70 83.21 396.05 C 80.76 377.80 80.50 359.38 79.75 341.01 C 79.61 327.34 79.35 313.65 80.30 300.00 C 81.24 267.44 86.57 235.24 91.12 203.04 C 94.89 179.23 99.41 155.53 104.48 131.96 C 108.02 113.79 112.39 95.76 115.55 77.52 C 101.75 83.16 87.81 88.48 73.91 93.86 M 621.28 78.34 C 621.69 86.37 623.94 94.19 625.25 102.11 C 630.13 129.82 635.57 157.44 640.43 185.16 C 644.01 203.85 647.26 222.61 649.81 241.48 C 655.76 281.65 656.80 322.39 654.85 362.92 C 654.79 364.08 654.74 365.26 654.71 366.44 C 668.92 366.45 683.13 366.55 697.34 366.47 C 698.81 363.52 698.34 360.16 698.67 357.00 C 701.20 328.45 700.30 299.71 697.94 271.18 C 695.67 244.36 692.10 217.65 687.51 191.12 C 682.54 160.92 677.28 130.73 669.83 101.02 C 669.00 98.14 666.55 95.95 663.79 94.98 C 649.64 89.38 635.39 84.04 621.28 78.34 M 652.08 428.22 C 649.50 428.43 647.28 430.39 646.68 432.90 C 645.00 439.20 644.04 445.67 642.61 452.03 C 636.19 483.42 626.89 514.21 614.86 543.91 C 598.62 583.77 577.20 621.44 551.91 656.24 C 507.39 717.43 450.46 769.11 387.04 810.15 C 386.84 810.44 386.44 811.02 386.24 811.31 C 393.04 808.74 399.16 804.73 405.56 801.32 C 474.44 763.12 536.94 712.60 585.83 650.62 C 637.82 585.68 673.32 507.88 689.48 426.34 C 683.31 426.13 677.13 426.61 670.97 426.83 C 664.70 427.65 658.32 427.21 652.08 428.22 M 121.07 609.27 C 121.21 610.43 121.56 611.58 122.31 612.52 C 136.27 633.29 151.49 653.22 168.03 672.00 C 218.65 730.07 281.48 776.80 349.68 812.24 C 350.14 812.25 350.59 812.20 351.05 812.09 C 318.22 790.49 286.62 766.86 257.83 740.05 C 229.30 713.80 203.81 684.26 181.79 652.35 C 171.63 637.13 161.54 621.87 151.25 606.74 C 150.38 605.46 149.20 604.47 148.04 603.48 C 138.96 604.97 130.08 607.45 121.07 609.27 Z" />
<path fill="#000000" opacity="1.00" d=" M 150.63 157.76 C 162.12 156.81 173.47 154.46 184.95 153.41 C 193.22 190.23 202.13 226.92 210.80 263.65 C 201.30 263.70 191.80 263.56 182.30 263.72 C 180.41 256.39 180.39 248.54 177.37 241.53 C 174.96 240.91 172.48 240.55 169.99 240.76 C 162.32 241.48 154.59 241.03 146.91 241.52 C 144.55 241.46 142.79 243.44 142.21 245.57 C 140.40 250.96 139.18 256.53 137.38 261.93 C 136.85 263.81 134.73 264.55 132.94 264.42 C 126.83 264.39 120.72 264.56 114.61 264.22 C 119.91 250.07 125.39 236.00 130.70 221.85 C 137.40 204.61 143.76 187.15 147.75 169.05 C 148.82 165.31 149.11 161.36 150.63 157.76 M 164.64 182.11 C 159.35 197.22 153.95 212.30 148.96 227.52 C 157.64 227.47 166.33 227.52 175.01 227.49 C 172.42 212.54 168.79 197.79 166.04 182.87 C 165.69 182.68 164.99 182.30 164.64 182.11 Z" />
<path fill="#000000" opacity="1.00" d=" M 578.44 155.08 C 584.65 155.66 590.82 156.75 596.92 158.02 C 599.08 158.33 600.90 159.95 601.09 162.20 C 605.38 196.02 609.90 229.83 613.86 263.69 C 605.86 263.47 597.85 264.00 589.87 263.42 C 588.07 240.96 585.18 218.56 582.88 196.14 C 581.55 182.44 580.11 168.75 578.44 155.08 Z" />
<path fill="#000000" opacity="1.00" d=" M 343.92 202.85 C 348.58 192.20 358.48 184.04 369.84 181.57 C 379.80 179.09 391.15 180.08 399.43 186.58 C 408.23 193.54 413.51 204.99 412.67 216.22 C 397.55 221.96 382.38 227.58 367.30 233.40 C 367.91 244.49 378.91 253.81 390.02 252.71 C 397.00 252.92 402.44 247.65 408.92 246.32 C 409.74 248.53 412.91 249.91 412.50 252.43 C 406.25 259.44 397.26 263.89 387.90 264.69 C 380.51 265.09 372.88 265.07 365.85 262.41 C 355.20 258.54 345.93 250.16 342.42 239.20 C 340.58 234.34 340.33 229.13 339.99 224.01 C 340.18 216.80 340.70 209.43 343.92 202.85 M 375.13 191.17 C 370.66 192.62 368.12 196.96 366.07 200.88 C 362.50 208.11 363.97 216.34 363.68 224.09 C 370.98 221.18 378.34 218.41 385.54 215.27 C 388.28 214.36 389.91 211.66 390.29 208.90 C 390.94 203.87 389.74 198.48 386.50 194.51 C 383.84 191.30 379.12 189.60 375.13 191.17 Z" />
<path fill="#000000" opacity="1.00" d=" M 302.11 182.27 C 309.76 180.97 317.59 181.54 325.20 182.85 C 326.23 183.24 327.53 183.76 327.62 185.05 C 328.17 188.58 327.32 192.14 327.26 195.68 C 320.67 193.84 313.77 191.52 306.88 193.11 C 302.82 193.87 298.70 196.62 297.78 200.87 C 297.37 203.61 299.09 206.30 301.24 207.87 C 305.91 211.07 311.13 213.34 316.19 215.86 C 321.40 218.30 327.19 220.50 330.63 225.40 C 336.14 232.50 336.18 242.89 331.67 250.49 C 328.97 255.34 324.14 258.44 319.19 260.62 C 306.14 266.79 290.79 265.96 277.38 261.42 C 275.08 260.75 273.46 258.53 273.50 256.14 C 273.37 252.16 273.49 248.18 273.43 244.19 C 281.86 248.12 290.21 253.75 299.93 253.10 C 304.47 252.75 309.46 251.07 311.48 246.60 C 313.60 243.59 313.04 239.23 309.84 237.23 C 302.01 231.63 292.89 228.16 284.77 223.02 C 280.80 220.44 277.39 216.72 276.07 212.09 C 273.69 204.68 276.88 196.54 282.43 191.42 C 287.65 186.15 294.81 183.14 302.11 182.27 Z" />
<path fill="#000000" opacity="1.00" d=" M 422.32 184.46 C 428.24 184.53 434.19 184.15 440.09 184.70 C 443.58 186.98 443.15 191.82 444.67 195.32 C 450.22 189.55 457.36 184.65 465.61 184.31 C 473.34 183.51 482.09 185.46 486.83 192.12 C 492.97 200.80 490.69 212.01 492.05 221.93 C 492.80 235.86 493.93 249.78 494.27 263.72 C 486.00 263.59 477.74 263.64 469.48 263.71 C 469.50 246.47 469.51 229.22 469.47 211.98 C 469.66 206.84 468.04 200.34 462.52 198.61 C 455.01 195.84 446.08 201.95 446.29 209.98 C 446.54 227.82 447.75 245.64 448.36 263.47 C 440.36 264.01 432.32 263.94 424.32 263.62 C 423.74 249.81 423.46 235.99 423.25 222.16 C 422.61 209.61 422.49 197.03 422.32 184.46 Z" />
<path fill="#000000" opacity="1.00" d=" M 262.56 186.47 C 265.81 184.59 269.65 184.27 273.33 184.29 C 273.72 189.37 272.64 194.38 272.58 199.44 C 265.40 200.99 257.60 202.87 252.68 208.78 C 248.31 213.79 247.07 220.58 246.73 227.01 C 246.51 239.23 246.65 251.46 246.63 263.69 C 238.22 263.64 229.82 263.63 221.41 263.68 C 221.80 238.68 222.66 213.66 224.48 188.73 C 231.43 188.40 238.36 187.79 245.31 187.46 C 245.88 191.62 246.54 195.77 246.86 199.97 C 252.28 195.70 256.29 189.67 262.56 186.47 Z" />
<path fill="#000000" opacity="1.00" d=" M 513.22 188.09 C 527.30 185.58 542.42 185.84 555.43 192.35 C 562.02 196.00 566.55 202.76 567.92 210.12 C 570.52 225.34 570.91 240.84 573.60 256.05 C 574.08 258.82 575.04 261.48 575.80 264.19 C 569.76 264.33 563.67 264.83 557.66 264.05 C 554.32 263.80 552.60 260.56 550.99 258.07 C 545.05 262.32 538.45 266.12 530.95 266.37 C 522.08 266.57 511.96 264.19 506.71 256.40 C 502.30 248.94 501.42 238.82 506.33 231.37 C 510.64 224.93 518.33 222.17 525.18 219.31 C 532.00 217.08 538.62 213.94 545.80 213.07 C 546.10 208.97 545.42 204.57 542.45 201.52 C 539.41 198.70 535.16 197.28 531.04 197.50 C 523.26 197.91 515.90 200.67 508.59 203.11 C 508.38 198.53 508.30 193.93 507.52 189.40 C 509.40 188.91 511.30 188.47 513.22 188.09 M 528.39 230.35 C 521.83 236.34 523.15 249.60 532.04 252.60 C 537.16 254.84 542.85 253.24 547.41 250.46 C 548.12 249.05 548.72 247.59 549.24 246.09 C 548.02 238.03 547.91 229.81 547.23 221.68 C 540.38 222.98 533.25 225.03 528.39 230.35 Z" />
<path fill="#000000" opacity="1.00" d=" M 321.85 357.44 C 357.42 344.04 398.85 347.18 431.87 366.09 C 467.11 385.58 492.32 422.11 497.72 462.05 C 500.24 482.38 498.84 503.42 491.88 522.79 C 479.49 560.11 449.02 590.71 411.95 603.68 C 382.09 614.48 348.39 613.87 318.91 602.09 C 285.61 588.92 258.13 561.53 245.33 528.04 C 230.22 490.26 234.66 445.54 256.25 411.14 C 271.42 386.70 294.80 367.34 321.85 357.44 M 326.56 381.37 C 307.54 389.06 291.50 402.81 279.34 419.17 C 297.42 430.04 316.00 440.09 334.09 450.96 C 335.88 452.16 337.95 452.77 340.01 453.33 C 344.58 451.99 348.18 448.71 352.44 446.71 C 355.27 445.30 358.82 443.71 359.06 440.07 C 358.49 424.75 358.93 409.38 358.79 394.04 C 358.64 387.18 359.18 380.27 358.34 373.44 C 347.48 374.71 336.67 377.13 326.56 381.37 M 376.50 439.09 C 376.29 441.88 378.46 444.17 380.79 445.36 C 384.73 447.56 388.69 449.76 392.41 452.34 C 394.37 454.05 397.13 453.58 399.17 452.29 C 418.06 441.09 437.30 430.47 456.07 419.09 C 449.94 411.26 443.41 403.65 435.60 397.44 C 418.96 383.55 397.92 375.62 376.48 373.36 C 376.52 395.27 376.47 417.18 376.50 439.09 M 408.90 466.73 C 406.63 467.99 404.07 470.01 404.47 472.93 C 404.61 478.96 403.96 485.03 404.68 491.03 C 407.11 493.06 409.80 494.75 412.59 496.26 C 428.02 504.77 443.15 513.80 458.44 522.54 C 460.57 523.70 462.53 525.29 464.92 525.89 C 471.66 510.91 475.23 494.44 474.98 478.02 C 474.65 465.00 471.82 452.10 467.15 439.96 C 466.34 438.14 465.61 436.29 464.97 434.42 C 446.26 445.14 427.63 456.03 408.90 466.73 M 270.85 435.05 C 261.54 452.02 259.57 472.05 260.90 491.07 C 262.35 503.13 264.99 515.24 270.97 525.93 C 273.30 525.19 275.36 523.83 277.44 522.57 C 293.70 513.08 309.98 503.63 326.28 494.21 C 327.71 493.33 329.24 492.53 330.44 491.33 C 331.02 484.86 330.31 478.31 331.22 471.86 C 330.40 468.25 326.75 466.81 323.88 465.13 C 306.14 455.22 288.68 444.79 270.85 435.05 M 359.23 463.31 C 353.71 465.76 350.14 471.18 348.76 476.93 C 348.41 481.13 348.96 485.36 350.67 489.23 C 354.76 496.67 363.78 501.13 372.14 498.90 C 380.20 496.97 386.50 489.28 386.49 480.93 C 386.77 474.59 383.58 468.28 378.41 464.64 C 372.80 460.95 365.29 460.31 359.23 463.31 M 333.83 509.88 C 315.81 520.69 297.26 530.65 279.48 541.83 C 289.18 554.31 300.63 565.74 314.54 573.48 C 327.92 581.33 343.13 585.57 358.48 587.32 C 359.01 565.88 358.58 544.41 358.70 522.97 C 359.13 519.59 357.21 516.26 354.16 514.81 C 350.02 512.60 346.04 510.11 341.98 507.77 C 339.11 506.18 336.28 508.59 333.83 509.88 M 386.83 511.79 C 384.15 513.57 381.13 514.74 378.43 516.47 C 376.27 518.33 376.35 521.38 376.39 523.99 C 376.53 545.09 376.33 566.19 376.66 587.29 C 389.28 585.66 401.89 582.81 413.40 577.20 C 430.46 569.46 444.71 556.55 455.88 541.65 C 438.03 530.80 419.67 520.81 401.71 510.15 C 399.89 509.14 398.12 507.90 396.04 507.55 C 392.52 507.67 389.76 510.14 386.83 511.79 Z" />
<path fill="#000000" opacity="1.00" d=" M 158.01 371.91 C 163.04 367.90 169.74 366.98 175.97 366.83 C 212.74 366.92 249.51 366.45 286.26 366.94 C 288.07 366.75 286.22 369.09 285.53 369.38 C 261.49 387.37 243.01 413.07 235.04 442.13 C 234.29 444.89 233.42 448.45 230.15 449.13 C 226.12 449.57 222.06 449.45 218.01 449.54 C 204.33 449.62 190.68 450.52 177.00 450.40 C 170.18 450.14 163.05 448.90 157.45 444.74 C 151.60 440.94 148.00 434.70 145.24 428.47 C 144.41 426.50 143.23 424.43 141.02 423.80 C 137.27 423.13 133.42 424.04 129.68 423.34 C 127.65 422.83 126.59 420.94 125.67 419.26 C 123.08 411.57 122.37 402.35 127.64 395.58 C 131.62 392.83 136.83 393.95 141.39 393.58 C 147.61 386.93 150.56 377.50 158.01 371.91 Z" />
<path fill="#000000" opacity="1.00" d=" M 326.75 388.66 C 334.70 385.28 343.04 382.92 351.51 381.24 C 351.44 400.62 351.48 419.99 351.49 439.37 C 348.29 441.03 345.24 442.98 341.96 444.45 C 338.18 445.69 334.66 443.40 331.48 441.71 C 317.78 433.69 303.95 425.86 290.34 417.70 C 290.34 417.35 290.34 416.66 290.35 416.31 C 300.17 404.49 312.76 395.00 326.75 388.66 Z" />
<path fill="#000000" opacity="1.00" d=" M 383.47 435.88 C 383.53 417.73 383.10 399.56 383.53 381.41 C 400.48 384.21 416.82 391.01 430.21 401.86 C 435.96 406.39 440.98 411.74 445.94 417.10 C 435.18 423.76 424.04 429.80 413.12 436.20 C 408.11 438.91 403.44 442.31 398.08 444.30 C 394.29 445.33 390.89 443.01 387.74 441.26 C 385.73 440.13 383.28 438.50 383.47 435.88 Z" />
<path fill="#000000" opacity="1.00" d=" M 273.90 444.41 C 289.12 453.17 304.35 461.91 319.58 470.66 C 323.60 472.87 323.95 477.96 323.52 482.03 C 323.21 486.81 319.52 490.53 315.49 492.66 C 301.43 500.33 287.78 508.69 273.87 516.61 C 269.97 505.17 266.91 493.23 267.29 481.04 C 266.87 468.51 269.75 456.15 273.90 444.41 Z" />
<path fill="#000000" opacity="1.00" d=" M 416.81 469.72 C 431.77 460.97 446.93 452.54 462.07 444.13 C 463.88 452.62 466.05 461.06 468.45 469.41 C 449.92 473.91 431.35 478.26 412.78 482.63 C 410.47 477.97 412.06 472.09 416.81 469.72 Z" />
<path fill="#000000" opacity="1.00" d=" M 363.57 468.74 C 371.00 466.08 379.94 471.99 379.83 479.98 C 380.56 488.00 371.61 494.65 364.09 492.06 C 358.82 490.65 355.36 485.37 355.35 480.06 C 355.44 475.08 358.93 470.43 363.57 468.74 Z" />
</g>
</svg>
